<?xml version="1.0" encoding="UTF-8"?>
<svg version="1.1" xmlns="http://www.w3.org/2000/svg" width="500" height="500">
<path d="M0 0 C4.230295 2.55056934 7.28525604 5.949301 10.546875 9.61328125 C16.77025245 16.43749291 23.18332187 23.01807006 29.77294922 29.48901367 C32.9832332 32.66018562 36.09009364 35.85424264 39.02734375 39.28125 C43.40862646 44.3689104 48.20483248 49.02825935 52.984375 53.73828125 C54.77444432 55.50286915 56.56231181 57.26969429 58.34765625 59.0390625 C59.5219519 60.19595581 59.5219519 60.19595581 60.7199707 61.3762207 C62.671875 63.42578125 62.671875 63.42578125 64.671875 66.42578125 C65.166875 34.25078125 65.166875 34.25078125 65.671875 1.42578125 C66.661875 1.09578125 67.651875 0.76578125 68.671875 0.42578125 C70.96850586 1.62573242 70.96850586 1.62573242 73.63671875 3.46875 C74.60158203 4.13068359 75.56644531 4.79261719 76.56054688 5.47460938 C77.56666016 6.18037109 78.57277344 6.88613281 79.609375 7.61328125 C80.61162109 8.29970703 81.61386719 8.98613281 82.64648438 9.69335938 C92.18375727 16.29119259 92.18375727 16.29119259 94.671875 19.42578125 C94.96776112 22.04160769 95.02725234 24.20340011 94.88452148 26.79858398 C94.86112701 27.53596802 94.83773254 28.27335205 94.81362915 29.03308105 C94.76272463 30.63474987 94.70390775 32.23618231 94.63812065 33.83730888 C94.47473135 38.1680539 94.42554824 42.50093468 94.35351562 46.83398438 C94.25295647 52.32889231 94.1217199 57.81815647 93.88012695 63.30883789 C92.12609258 86.65995069 92.12609258 86.65995069 101.64143848 106.96130848 C105.51716475 110.95179526 109.83755946 114.35117665 114.3196106 117.62722778 C118.23980116 120.62462566 121.08840358 123.675367 122.671875 128.42578125 C123.22072606 133.14949935 123.13784228 136.52713007 120.921875 140.80078125 C116.92400748 145.46496003 114.2651293 146.75312956 108.28125 147.703125 C100.36274938 146.86148796 95.38256241 141.54243095 90.359375 135.86328125 C88.97170171 134.33975417 87.58094255 132.81903346 86.1875 131.30078125 C85.45982422 130.50671875 84.73214844 129.71265625 83.98242188 128.89453125 C79.21021911 123.79557581 74.20847386 118.9207561 69.23120117 114.02319336 C65.79750759 110.62623556 62.44200945 107.22551428 59.30078125 103.5546875 C54.72048062 98.22582961 49.67182657 93.35535817 44.671875 88.42578125 C39.0950459 82.92744639 33.59413886 77.43185341 28.5 71.4765625 C24.5967024 67.09786327 20.34750021 63.04234528 16.171875 58.92578125 C10.65063938 53.48263949 5.18808634 48.06408387 0.16967773 42.1484375 C-2.19282694 39.43126831 -4.75172488 36.93934234 -7.328125 34.42578125 C-11.55449817 36.02196494 -14.0973472 39.19652364 -17.015625 42.48828125 C-18.08439064 43.67197143 -19.15471411 44.85425682 -20.2265625 46.03515625 C-20.75217773 46.61458984 -21.27779297 47.19402344 -21.81933594 47.79101562 C-23.86330104 50.00564189 -25.9914707 52.126054 -28.140625 54.23828125 C-30.80256093 56.86205322 -33.33424973 59.52479199 -35.765625 62.36328125 C-38.48431748 65.53614045 -41.35564175 68.48916507 -44.328125 71.42578125 C-47.25930691 74.32170083 -50.09215674 77.22820696 -52.765625 80.36328125 C-55.62984855 83.71503221 -58.69146593 86.83134542 -61.828125 89.92578125 C-64.94391623 92.99968652 -67.98689738 96.0928027 -70.828125 99.42578125 C-74.1104589 103.2762114 -77.68067349 106.80723704 -81.27905273 110.35717773 C-84.52682614 113.57815157 -87.55044447 116.91614639 -90.515625 120.39453125 C-93.45870178 123.69280695 -96.63533496 126.75257734 -99.80078125 129.8359375 C-100.63480469 130.69058594 -101.46882813 131.54523438 -102.328125 132.42578125 C-103.08730177 133.06965192 -103.08730177 133.06965192 -103.86181545 133.72653008 C-107.72176479 137.39819074 -108.76571667 140.31612666 -109.06983948 145.62478638 C-109.09629515 148.1418121 -109.08965635 150.65931812 -109.05688477 153.17626953 C-109.0601073 154.5681946 -109.06592941 155.9601157 -109.07414246 157.35202026 C-109.08863094 161.11668549 -109.06579703 164.88027673 -109.03528333 168.64481211 C-109.00885142 172.59025168 -109.01421586 176.53566059 -109.0153656 180.48117065 C-109.01256004 187.10367718 -108.98656545 193.72577015 -108.94555664 200.34814453 C-108.89834537 208.00032635 -108.8825639 215.65205597 -108.8847633 223.30437291 C-108.88679075 231.46052904 -108.86596573 239.61651132 -108.83842349 247.77261496 C-108.83203557 250.11950563 -108.82990081 252.46636818 -108.82870674 254.81326675 C-108.82568942 258.50210948 -108.80734348 262.1905738 -108.77720833 265.87929153 C-108.76429088 267.87613294 -108.76594564 269.87305199 -108.76803589 271.86993408 C-108.75524094 273.06150116 -108.74244598 274.25306824 -108.72926331 275.48074341 C-108.72423577 276.51419954 -108.71920824 277.54765568 -108.71402836 278.61242867 C-108.16892372 282.58640687 -106.84574163 285.26950184 -103.62610435 287.72255898 C-100.28452529 288.74514119 -97.02070954 288.69928502 -93.56045532 288.67733765 C-92.77314541 288.68030779 -91.9858355 288.68327792 -91.17466772 288.68633807 C-88.53385182 288.69398281 -85.89325802 288.68748211 -83.25244141 288.68115234 C-81.36013132 288.68390201 -79.46782238 288.68758176 -77.57551575 288.69212341 C-73.49892239 288.70023917 -69.42238389 288.70240292 -65.34578323 288.70017624 C-58.90002196 288.69734578 -52.45437054 288.71168509 -46.00863647 288.72915649 C-27.67895151 288.7762092 -9.34927391 288.80012638 8.98046875 288.80664062 C19.10259329 288.81038983 29.22459369 288.82840808 39.34666502 288.86173499 C45.75441755 288.8819679 52.16185031 288.88430993 58.5696218 288.87345481 C62.55680074 288.87084911 66.54379321 288.88484488 70.53092384 288.90353584 C72.37961587 288.90886178 74.22834215 288.90735418 76.07702065 288.89850044 C78.60187289 288.88738391 81.12546288 288.90080463 83.65023804 288.92025757 C84.38098553 288.91113291 85.11173302 288.90200825 85.86462438 288.89260709 C90.91936088 288.96833598 93.75884222 290.28371768 97.671875 293.42578125 C100.57415918 296.72838049 101.58746553 299.30735573 101.921875 303.73828125 C101.60367468 308.43173592 100.15829301 311.44389058 97.359375 315.17578125 C92.68390492 318.63909242 87.25493854 318.71545216 81.65937805 318.68647766 C80.86980357 318.69030321 80.08022909 318.69412876 79.2667281 318.69807023 C76.62998016 318.70836075 73.99345158 318.70441556 71.35668945 318.70043945 C69.46234435 318.70478823 67.56800101 318.70997194 65.67366028 318.71592712 C60.53292524 318.72931363 55.39226374 318.72989594 50.25151467 318.72736382 C45.95511192 318.72629342 41.65872399 318.73117951 37.36232442 318.73596925 C27.22078636 318.74706422 17.07928533 318.74750254 6.93774414 318.74145508 C-3.50955557 318.73542079 -13.95672042 318.74771251 -24.40399712 318.76902515 C-33.38426688 318.7866686 -42.36449383 318.79263799 -51.34478027 318.7893874 C-56.7033831 318.78757805 -62.06188983 318.79017557 -67.42047691 318.80410194 C-72.46432895 318.81671953 -77.50797176 318.81469905 -82.55182076 318.80169106 C-84.39680936 318.7993339 -86.24181286 318.8020289 -88.08678436 318.81031418 C-103.97482854 318.87648342 -115.91909296 317.28662088 -128.078125 306.17578125 C-138.09077136 295.62881734 -138.62978882 282.34204596 -138.61865234 268.57788086 C-138.62464626 267.09201218 -138.63145378 265.6061466 -138.63900757 264.12028503 C-138.65658006 260.10799523 -138.66135903 256.09579087 -138.66263914 252.08346629 C-138.66406548 249.57287835 -138.66834403 247.06231181 -138.67363358 244.5517292 C-138.69209995 235.78276322 -138.70030784 227.01385783 -138.69873047 218.24487305 C-138.69752774 210.08601542 -138.71866451 201.92742174 -138.7502178 193.76863092 C-138.77639842 186.74756315 -138.78709712 179.72658157 -138.78581965 172.70546538 C-138.78531084 168.51898709 -138.79094977 164.33274403 -138.81217575 160.14631462 C-138.83159024 156.2104028 -138.83166104 152.27495003 -138.81714249 148.33902168 C-138.81505774 146.89912874 -138.81973538 145.45920678 -138.8318634 144.0193634 C-138.92436083 132.27288949 -136.85137792 125.43021198 -128.640625 116.98828125 C-128.11315674 116.43116455 -127.58568848 115.87404785 -127.04223633 115.30004883 C-123.21601958 111.27919032 -119.28875086 107.36098595 -115.3359375 103.46484375 C-113.43384119 101.53314283 -111.65376553 99.54664531 -109.890625 97.48828125 C-107.17193252 94.31542205 -104.30060825 91.36239743 -101.328125 88.42578125 C-98.39694309 85.52986167 -95.56409326 82.62335554 -92.890625 79.48828125 C-90.02640145 76.13653029 -86.96478407 73.02021708 -83.828125 69.92578125 C-80.71233377 66.85187598 -77.66935262 63.7587598 -74.828125 60.42578125 C-71.5457911 56.5753511 -67.97557651 53.04432546 -64.37719727 49.49438477 C-61.1346457 46.27858968 -58.11425863 42.94759843 -55.15625 39.47265625 C-52.08461979 36.03348055 -48.76447912 32.84378672 -45.46484375 29.625 C-43.1928537 27.4200006 -43.1928537 27.4200006 -41.328125 24.42578125 C-40.668125 24.42578125 -40.008125 24.42578125 -39.328125 24.42578125 C-39.11800781 23.88824219 -38.90789062 23.35070312 -38.69140625 22.796875 C-36.80871705 19.52239837 -34.20599136 17.09406535 -31.515625 14.48828125 C-30.73348633 13.71967773 -30.73348633 13.71967773 -29.93554688 12.93554688 C-28.90097265 11.91905509 -27.86438072 10.90461243 -26.82568359 9.89233398 C-25.39439596 8.49068012 -23.97995228 7.07188786 -22.56640625 5.65234375 C-16.10057935 -0.77963066 -8.72157565 -4.12534623 0 0 Z " fill="#286946" transform="translate(166.328125,94.57421875)"/>
<path d="M0 0 C2.375 2 2.375 2 5 5 C6.45207347 6.44382305 7.91106143 7.88070873 9.375 9.3125 C12.73384013 12.67134013 15.90984198 16.11734494 19.00390625 19.71875 C21.53461553 22.61098918 24.1384945 25.43077988 26.75 28.25 C27.26594727 28.8071167 27.78189453 29.3642334 28.31347656 29.93823242 C29.36304562 31.07135656 30.41268766 32.20441311 31.46240234 33.33740234 C34.74440204 36.88621434 38.00557173 40.45413823 41.26953125 44.01953125 C43.61798457 46.58479094 45.97277361 49.14416133 48.32861328 51.70263672 C49.71403704 53.21084966 51.09393196 54.72394473 52.47265625 56.23828125 C54.04745206 57.95911686 55.63632117 59.66730724 57.24609375 61.35546875 C57.88675781 62.04253906 58.52742187 62.72960937 59.1875 63.4375 C59.73792969 64.01371094 60.28835937 64.58992188 60.85546875 65.18359375 C62.39291586 67.62356954 62.42760569 69.17228499 62 72 C58.69038173 74.20641218 57.68706193 74.25219897 53.8380127 74.26069641 C52.76962662 74.26778122 51.70124054 74.27486603 50.60047913 74.28216553 C49.4284343 74.27968811 48.25638947 74.27721069 47.04882812 74.2746582 C45.81450546 74.27976913 44.5801828 74.28488007 43.30845642 74.29014587 C39.92209637 74.30167648 36.53598082 74.30411361 33.14961815 74.30158257 C30.32392301 74.30051369 27.49825051 74.30539402 24.67256021 74.310188 C18.00776383 74.32128612 11.34302381 74.32171864 4.67822266 74.31567383 C-2.20135889 74.30963028 -9.08073612 74.32195387 -15.9602828 74.3432439 C-21.86438856 74.36084455 -27.76842918 74.36686377 -33.67256021 74.36360615 C-37.19997112 74.36179096 -40.72723622 74.36445291 -44.25462341 74.37832069 C-48.18610701 74.39319877 -52.1173291 74.38394236 -56.04882812 74.37231445 C-57.80689537 74.38378006 -57.80689537 74.38378006 -59.60047913 74.39547729 C-60.6688652 74.38846298 -61.73725128 74.38144867 -62.8380127 74.3742218 C-64.23283245 74.37447341 -64.23283245 74.37447341 -65.65583038 74.37473011 C-68 74 -68 74 -69.83019257 72.63037395 C-71 71 -71 71 -70.87890625 68.53979492 C-69.92814257 65.79235199 -68.95436416 64.43211756 -66.9375 62.36328125 C-66.31004883 61.70875977 -65.68259766 61.05423828 -65.03613281 60.37988281 C-64.36420898 59.69764648 -63.69228516 59.01541016 -63 58.3125 C-61.61907665 56.87698957 -60.23886534 55.44079382 -58.859375 54.00390625 C-58.19099609 53.31312988 -57.52261719 52.62235352 -56.83398438 51.91064453 C-54.5867071 49.56943155 -52.40886027 47.17280852 -50.25 44.75 C-47.06661811 41.1850892 -43.85702312 37.64581821 -40.625 34.125 C-40.16464355 33.62339355 -39.70428711 33.12178711 -39.22998047 32.60498047 C-37.34855267 30.55579039 -35.46624812 28.50740658 -33.58398438 26.45898438 C-28.72854872 21.17374529 -23.87889386 15.88339338 -19.0625 10.5625 C-18.37285156 9.80066406 -17.68320313 9.03882813 -16.97265625 8.25390625 C-15.55922734 6.63895877 -14.19291192 4.98230316 -12.859375 3.30078125 C-9.0171506 -1.45356786 -5.85609126 -1.54107665 0 0 Z " fill="#DAE952" transform="translate(163,164)"/>
<path d="M0 0 C0.68564026 -0.00619858 1.37128052 -0.01239716 2.07769775 -0.01878357 C3.52671901 -0.0258729 4.97582186 -0.02272296 6.42480469 -0.01000977 C8.62070592 0.00378115 10.81227614 -0.03012251 13.0078125 -0.06835938 C20.64281931 -0.10999299 27.01430715 0.10096282 32.890625 5.56640625 C37.07702021 9.86296975 38.69909725 13.98078165 39.140625 19.94140625 C38.93809386 22.87810773 38.5453361 24.88256571 37.703125 27.62890625 C36.53427285 31.85787826 37.7423403 33.74723345 39.890625 37.56640625 C41.6811101 45.23991383 40.24005791 51.70662361 36.140625 58.44140625 C30.73691686 63.54490838 26.00500204 65.18029348 18.65625 65.09765625 C17.89640808 65.10148315 17.13656616 65.10531006 16.35369873 65.10925293 C14.76036236 65.11195746 13.16698047 65.10469911 11.57373047 65.08789062 C9.13279252 65.06633709 6.6947574 65.08779957 4.25390625 65.11328125 C2.70051435 65.11064004 1.14712425 65.10551934 -0.40625 65.09765625 C-1.49845856 65.10980164 -1.49845856 65.10980164 -2.61273193 65.12219238 C-7.64632001 65.02857067 -7.64632001 65.02857067 -9.79927063 62.87976074 C-11.39536889 60.06140431 -11.49551023 58.26478182 -11.51342773 55.03515625 C-11.52611191 53.92720703 -11.53879608 52.81925781 -11.55186462 51.67773438 C-11.54892899 50.48599609 -11.54599335 49.29425781 -11.54296875 48.06640625 C-11.5482106 46.83857422 -11.55345245 45.61074219 -11.55885315 44.34570312 C-11.56527599 41.75000769 -11.56393301 39.15428317 -11.55541992 36.55859375 C-11.54690732 32.58150584 -11.57567521 28.60585233 -11.60742188 24.62890625 C-11.60903384 22.10807335 -11.60845645 19.5872379 -11.60546875 17.06640625 C-11.61670273 15.87466797 -11.62793671 14.68292969 -11.63951111 13.45507812 C-11.63013016 12.34712891 -11.62074921 11.23917969 -11.61108398 10.09765625 C-11.61083473 8.63682617 -11.61083473 8.63682617 -11.61058044 7.14648438 C-10.35162033 0.66567795 -5.84980144 0.05014752 0 0 Z M5.890625 16.56640625 C5.890625 27.12640625 5.890625 37.68640625 5.890625 48.56640625 C11.170625 48.56640625 16.450625 48.56640625 21.890625 48.56640625 C24.30184359 46.6100665 24.30184359 46.6100665 24.015625 42.94140625 C23.974375 41.82765625 23.933125 40.71390625 23.890625 39.56640625 C21.085886 38.3290214 18.68691821 37.53506674 15.640625 37.06640625 C14.733125 36.90140625 13.825625 36.73640625 12.890625 36.56640625 C11.36912342 33.52340309 11.65163107 30.91232125 11.890625 27.56640625 C15.17526159 25.37664852 18.09758775 24.56834062 21.890625 23.56640625 C21.890625 21.58640625 21.890625 19.60640625 21.890625 17.56640625 C17.11103878 15.17661314 11.23436485 16.56640625 5.890625 16.56640625 Z " fill="#286946" transform="translate(321.109375,278.43359375)"/>
<path d="M0 0 C4.18104153 2.77329448 6.08773074 5.48850354 8.19921875 9.99609375 C9.04685791 11.77959229 9.04685791 11.77959229 9.91162109 13.59912109 C10.50409597 14.87834222 11.09604521 16.15780691 11.6875 17.4375 C12.30185936 18.74609319 12.91726529 20.05419551 13.53369141 21.36181641 C14.46514066 23.33940556 15.39509204 25.31760782 16.31958008 27.29846191 C18.2065061 31.3393889 20.14593642 35.34864939 22.13671875 39.33984375 C22.60311768 40.28351807 23.0695166 41.22719238 23.55004883 42.19946289 C24.40892402 43.93383053 25.27672601 45.66381733 26.1550293 47.38842773 C28.44490125 52.07661111 29.72457574 55.65710038 29 61 C25.89952256 63.94923464 23.60960386 64.87166235 19.4375 65.75 C15.56322273 64.90470314 15.24415097 64.53256413 13.1875 61.375 C11.26021058 57.94139905 10.28280782 54.84842347 9 51 C1.08 51 -6.84 51 -15 51 C-15.66 52.98 -16.32 54.96 -17 57 C-18.33295328 59.98541596 -19.75028903 62.60857495 -22 65 C-25.94866825 65.77563126 -28.13628867 65.31919766 -31.875 63.9375 C-34.24481206 61.776789 -34.81167702 60.34612095 -35.16552734 57.18383789 C-34.79615083 52.31057394 -32.07817302 48.02300314 -29.875 43.75 C-28.76732019 41.53430835 -27.66058418 39.31814468 -26.5546875 37.1015625 C-25.97299805 35.94817383 -25.39130859 34.79478516 -24.79199219 33.60644531 C-22.94657691 29.92039889 -21.19016676 26.19540451 -19.4453125 22.4609375 C-18.86362713 21.22289572 -18.28176061 19.98493903 -17.69970703 18.74707031 C-16.58080225 16.3670764 -15.47150765 13.98333014 -14.36669922 11.59667969 C-13.85381348 10.51547852 -13.34092773 9.43427734 -12.8125 8.3203125 C-12.14154297 6.88582764 -12.14154297 6.88582764 -11.45703125 5.42236328 C-8.56353345 0.61182621 -5.55501386 -0.79357341 0 0 Z M-4 28 C-4.99 30.97 -5.98 33.94 -7 37 C-4.03 37 -1.06 37 2 37 C0.68 34.03 -0.64 31.06 -2 28 C-2.66 28 -3.32 28 -4 28 Z " fill="#286946" transform="translate(265,279)"/>
<path d="M0 0 C1.56183888 2.37206058 2.65439774 4.37965498 3.76171875 6.94921875 C4.07905472 7.64006058 4.39639069 8.3309024 4.7233429 9.04267883 C5.73127133 11.24922319 6.70945899 13.46757099 7.6875 15.6875 C8.35551706 17.16167194 9.02542076 18.6349905 9.69726562 20.10742188 C12.5433998 26.37175205 15.30074631 32.67108548 18 39 C18.37769531 38.18402344 18.75539062 37.36804688 19.14453125 36.52734375 C20.69178746 33.19730053 22.24925622 29.87227315 23.80957031 26.54833984 C24.65995589 24.72792873 25.50507755 22.90505486 26.34667969 21.08056641 C27.78383948 17.9657365 29.23486578 14.85763878 30.6875 11.75 C31.15067627 10.73800537 31.61385254 9.72601074 32.09106445 8.68334961 C32.53925537 7.73081299 32.98744629 6.77827637 33.44921875 5.796875 C33.84455811 4.94448242 34.23989746 4.09208984 34.6472168 3.21386719 C36.15330494 0.74911222 37.52683197 -0.52644844 40 -2 C42.2890625 -1.70703125 42.2890625 -1.70703125 44.625 -0.8125 C45.40101563 -0.53019531 46.17703125 -0.24789063 46.9765625 0.04296875 C49 1 49 1 51 3 C50.90613451 10.76954683 48.26363079 16.44532011 44.7578125 23.2734375 C44.23363739 24.31899811 43.70946228 25.36455872 43.16940308 26.44180298 C42.06468741 28.63852556 40.95324105 30.83187489 39.83544922 33.02197266 C38.12341416 36.37810876 36.43316368 39.74453766 34.74609375 43.11328125 C33.6679214 45.2506334 32.58853623 47.38737429 31.5078125 49.5234375 C31.00146271 50.52966156 30.49511292 51.53588562 29.97341919 52.57260132 C29.49637543 53.50432159 29.01933167 54.43604187 28.52783203 55.39599609 C27.90281296 56.62435684 27.90281296 56.62435684 27.26516724 57.87753296 C26.02295 59.96149867 24.85320388 61.44242508 23 63 C20.87890625 63.43359375 20.87890625 63.43359375 18.5625 63.4375 C17.80066406 63.45683594 17.03882813 63.47617187 16.25390625 63.49609375 C13.16159692 62.81546414 12.09401864 61.34395789 10 59 C8.61457825 56.74382019 8.61457825 56.74382019 7.35864258 54.25073242 C6.88167435 53.31263229 6.40470612 52.37453217 5.9132843 51.40800476 C5.41209579 50.40066788 4.91090729 49.39333099 4.39453125 48.35546875 C3.60752083 46.79074577 3.60752083 46.79074577 2.80461121 45.19441223 C1.698823 42.9899306 0.59713418 40.78338857 -0.50073242 38.57495117 C-2.17930683 35.20395393 -3.8768184 31.84298258 -5.57617188 28.48242188 C-6.64959935 26.33651829 -7.7219026 24.1900519 -8.79296875 22.04296875 C-9.30022995 21.04170456 -9.80749115 20.04044037 -10.3301239 19.00883484 C-12.81240643 13.97772445 -14.86014742 9.66005372 -15 4 C-10.99880937 -1.69400205 -6.17960144 -2.9647742 0 0 Z " fill="#286946" transform="translate(165,280)"/>
<path d="M0 0 C0.76441406 -0.00773437 1.52882813 -0.01546875 2.31640625 -0.0234375 C5.00756391 0.48208383 5.75945217 1.2340882 7.4375 3.375 C7.79826355 5.55802917 7.79826355 5.55802917 7.77807617 8.12182617 C7.77784958 9.08259567 7.77762299 10.04336517 7.77738953 11.0332489 C7.76190567 12.06770645 7.74642181 13.102164 7.73046875 14.16796875 C7.72622391 15.22913406 7.72197906 16.29029938 7.71760559 17.38362122 C7.70079706 20.77683765 7.66314019 24.16946272 7.625 27.5625 C7.609956 29.86131956 7.59626711 32.16014841 7.58398438 34.45898438 C7.55088645 40.09785842 7.5006653 45.73638697 7.4375 51.375 C8.27522949 51.36452637 9.11295898 51.35405273 9.97607422 51.34326172 C13.08088164 51.30919981 16.18559392 51.28411089 19.29052734 51.26513672 C21.2966136 51.25011893 23.30261324 51.22471019 25.30859375 51.19921875 C26.56542969 51.19277344 27.82226562 51.18632812 29.1171875 51.1796875 C30.27976074 51.16921387 31.44233398 51.15874023 32.64013672 51.14794922 C35.4375 51.375 35.4375 51.375 37.4375 53.375 C37.703125 55.46875 37.703125 55.46875 37.6875 57.875 C37.69523437 59.06609375 37.69523437 59.06609375 37.703125 60.28125 C37.4375 62.375 37.4375 62.375 35.4375 64.375 C32.38744553 64.58745194 29.43055373 64.67895229 26.37890625 64.67578125 C25.47881332 64.68006638 24.5787204 64.6843515 23.65135193 64.68876648 C21.74568524 64.6945153 19.83999661 64.69500599 17.93432617 64.69067383 C15.0150819 64.68751631 12.09685306 64.71095734 9.17773438 64.73632812 C7.32812628 64.73860127 5.47851546 64.73930454 3.62890625 64.73828125 C2.31630577 64.75209587 2.31630577 64.75209587 0.97718811 64.76618958 C0.16301926 64.75996078 -0.6511496 64.75373199 -1.48999023 64.74731445 C-2.20565659 64.74794388 -2.92132294 64.7485733 -3.65867615 64.7492218 C-6.2322648 64.24334885 -7.06711205 63.52596467 -8.5625 61.375 C-8.95018005 58.83251953 -8.95018005 58.83251953 -8.96655273 55.7578125 C-8.97923691 54.60651855 -8.99192108 53.45522461 -9.00498962 52.26904297 C-9.00205399 51.02525879 -8.99911835 49.78147461 -8.99609375 48.5 C-9.0013356 47.22398926 -9.00657745 45.94797852 -9.01197815 44.63330078 C-9.01840744 41.93295541 -9.01848472 39.2334533 -9.00854492 36.53320312 C-8.99704778 33.0726645 -9.01727521 29.61314517 -9.04646206 26.15274048 C-9.06921513 22.85182141 -9.06235836 19.55097916 -9.05859375 16.25 C-9.06982773 15.00621582 -9.08106171 13.76243164 -9.09263611 12.48095703 C-9.08325516 11.32966309 -9.07387421 10.17836914 -9.06420898 8.9921875 C-9.06404282 7.97753418 -9.06387665 6.96288086 -9.06370544 5.91748047 C-8.5625 3.375 -8.5625 3.375 -6.67201233 1.54882812 C-4.25298722 0.20277308 -2.75345911 -0.0279539 0 0 Z " fill="#286946" transform="translate(386.5625,278.625)"/>
<path d="M0 0 C4.51846921 3.04505534 8.13526194 6.71828583 9.875 11.9375 C10.40207828 18.15702373 9.7707378 22.89025959 5.875 27.9375 C-0.25090799 32.9375 -0.25090799 32.9375 -4.125 32.9375 C-4.125 44.4875 -4.125 56.0375 -4.125 67.9375 C-6.6 68.4325 -6.6 68.4325 -9.125 68.9375 C-10.125 67.9375 -10.125 67.9375 -10.23852539 64.61108398 C-10.23836629 63.13524444 -10.23267314 61.65939931 -10.22265625 60.18359375 C-10.2212413 59.40814713 -10.21982635 58.6327005 -10.21836853 57.83375549 C-10.21275345 55.34746506 -10.20019846 52.8612634 -10.1875 50.375 C-10.18248694 48.69336067 -10.1779237 47.01171994 -10.17382812 45.33007812 C-10.16277913 41.19918434 -10.14550445 37.06835724 -10.125 32.9375 C-10.90979736 32.79868408 -11.69459473 32.65986816 -12.50317383 32.5168457 C-15.38004763 31.88114205 -16.63256296 31.06000029 -18.8125 29.125 C-19.68455078 28.37283203 -19.68455078 28.37283203 -20.57421875 27.60546875 C-24.55247292 23.32659083 -24.49478561 19.2513432 -24.375 13.62890625 C-23.92259871 8.7585236 -22.24855944 6.00192473 -18.75 2.6875 C-12.6953191 -1.34895393 -6.92963876 -2.35607718 0 0 Z M-17.125 8.9375 C-16.795 10.9175 -16.465 12.8975 -16.125 14.9375 C-13.77132287 15.6253236 -13.77132287 15.6253236 -11.125 15.9375 C-10.135 15.2775 -9.145 14.6175 -8.125 13.9375 C-7.62485047 11.48008463 -7.62485047 11.48008463 -8.125 8.9375 C-9.39659652 7.08147385 -9.39659652 7.08147385 -11.125 5.9375 C-13.88723278 5.9375 -15.01781454 7.25175163 -17.125 8.9375 Z " fill="#286946" transform="translate(120.125,275.0625)"/>
<path d="M0 0 C0.33 1.65 0.66 3.3 1 5 C-0.0725 5.28875 -1.145 5.5775 -2.25 5.875 C-5.1200153 6.73600459 -7.38744547 7.62436288 -10 9 C-3.75491832 10.63774842 2.05273138 11.3131054 8.5 11.25 C9.68529297 11.26160156 9.68529297 11.26160156 10.89453125 11.2734375 C16.48879234 11.25512568 21.59389311 10.41773054 27 9 C23.71536341 6.81024227 20.79303725 6.00193437 17 5 C16.4375 3.0625 16.4375 3.0625 16 1 C16.33 0.67 16.66 0.34 17 0 C24.1833175 0.04894935 30.71179831 0.71179831 36 6 C36.4375 8.375 36.4375 8.375 36 11 C29.05890654 18.14524327 19.14742391 18.04344253 9.8125 18.1875 C-10.10916829 18.02844476 -10.10916829 18.02844476 -17 13 C-18.65911762 10.30393387 -19.22867675 8.97187618 -18.5 5.875 C-13.97383928 0.2172991 -6.70366305 -0.15589914 0 0 Z " fill="#286946" transform="translate(104,334)"/>
</svg>
